# xmcd
#
# Track frame offsets:
#	150
#	16310
#	28101
#	43575
#	59859
#	70730
#	85822
#	102781
#	117557
#	130436
#	146503
#	162718
#	177310
#	189473
#	205264
#	220170
#	237169
#	255980
#	272780
#	292643
#	293503
#	294325
#	295213
#	296400
#	297340
#	298188
#	299090
#	299945
#	300820
#	301668
#	302523
#	303700
#	304678
#	305548
#	306440
#	307340
#	308168
#	308988
#	309925
#	311018
#	311958
#	312798
#	313730
#
# Disc length: 4189 seconds
#
# Revision: 0
# Processed by: cddbd v1.5.2PL0 Copyright (c) Steve Scherf et al.
# Submitted via: audiograbber 1.83.01
#
DISCID=a8105b2b
DTITLE=Various Artist - CDX 616
DYEAR=2015
DGENRE=Country
TTITLE0=Old Dominion - Break Up with Him
TTITLE1=Brett Eldredge - Lose My Mind
TTITLE2=Lee Brice - That Don't Sound Like You (Radio Edit)
TTITLE3=Ashley Clark - Greyhound
TTITLE4=John Anderson - I Work A Lot Better
TTITLE5=Smith N Western - Call Me
TTITLE6=Stevie Lee Woods - Good Time to Go Home
TTITLE7=Rick Monroe - Great Minds Drink Alike
TTITLE8=Michelle Wright - Laugh A Little
TTITLE9=Cody Joe Hodges - One More Drink (edit)
TTITLE10=Cody Joe Hodges - One More Drink 
TTITLE11=Bill Wence - Songs That Make Me Think About You
TTITLE12=C.W. Montgomery - Taking Applications For An Angel
TTITLE13=Mary Fletcher - The Idea Of You
TTITLE14=Philip Claypool - Three More Beers Britney Spears
TTITLE15=Joe Schmidt - Jesus Loves Me
TTITLE16=Ward Davis - Last Monday In May
TTITLE17=Little Texas - Slow Ride Home
TTITLE18=The Cowboy - Wake Up America
TTITLE19=Hannah Bethel - Home Town Country
TTITLE20=Hannah Bethel - Kickin' Country
TTITLE21=Hannah Bethel - More of the Country You Love
TTITLE22=Hannah Bethel - My New Single
TTITLE23=Hannah Bethel - Super Country Greatest Hits
TTITLE24=Hannah Bethel - The Best In Country Music
TTITLE25=Hannah Bethel - Today's Best Country
TTITLE26=Hannah Bethel - Today's Hot Country Music
TTITLE27=Mitch Goudy - Home Town Country
TTITLE28=Mitch Goudy - Kickin' Country
TTITLE29=Mitch Goudy - More of the Country you Love Next
TTITLE30=Mitch Goudy - My New Single
TTITLE31=Mitch Goudy - Super Country Greatest Hits
TTITLE32=Mitch Goudy - The Best In Country Music
TTITLE33=Mitch Goudy - Today's Best Country
TTITLE34=Mitch Goudy - Today's Hot New Country Music
TTITLE35=Rick Monroe - Home Town Country
TTITLE36=Rick Monroe - Kickin' Country
TTITLE37=Rick Monroe - More of the Country You Love
TTITLE38=Rick Monroe - My New Single
TTITLE39=Rick Monroe - Super Country
TTITLE40=Rick Monroe - The Best In Country Music
TTITLE41=Rick Monroe - Today's Best Country
TTITLE42=Rick Monroe - Today's Hot Country Music
EXTD=
EXTT0=
EXTT1=
EXTT2=
EXTT3=
EXTT4=
EXTT5=
EXTT6=
EXTT7=
EXTT8=
EXTT9=
EXTT10=
EXTT11=
EXTT12=
EXTT13=
EXTT14=
EXTT15=
EXTT16=
EXTT17=
EXTT18=
EXTT19=
EXTT20=
EXTT21=
EXTT22=
EXTT23=
EXTT24=
EXTT25=
EXTT26=
EXTT27=
EXTT28=
EXTT29=
EXTT30=
EXTT31=
EXTT32=
EXTT33=
EXTT34=
EXTT35=
EXTT36=
EXTT37=
EXTT38=
EXTT39=
EXTT40=
EXTT41=
EXTT42=
PLAYORDER=
